PathFileType	4	(X/Y/Z)	C:/Users/beibeiliu/ov580/test_trc\sequence.41_training_dense_right.trc
DataRate	CameraRate	NumFrames	NumMarkers	Units	OrigDataRate	OrigDataStartFrame	OrigNumFrames
120	120	10	19	mm	120	57	85
Frame#	Time	ThumbCMC			ThumbMCP			ThumbIP			ThumbTip			IndexMCP			IndexPIP			IndexTip			MiddleMCP			MiddlePIP			MiddleTip			RingMCP			RingPIP			RingTip			PinkyMCP			PinkyPIP			PinkyTip			BackHand1			BackHand2			BackHand3	
		X0	Y0	Z0	X1	Y1	Z1	X2	Y2	Z2	X3	Y3	Z3	X4	Y4	Z4	X5	Y5	Z5	X6	Y6	Z6	X7	Y7	Z7	X8	Y8	Z8	X9	Y9	Z9	X10	Y10	Z10	X11	Y11	Z11	X12	Y12	Z12	X13	Y13	Z13	X14	Y14	Z14	X15	Y15	Z15	X16	Y16	Z16	X17	Y17	Z17	X18	Y18	Z18	
56	0.466667	114.014	116.288	47.0225	97.7229	100.936	22.6558	94.2089	92.8397	2.35577	91.4542	81.9828	-16.3562	129.75	126.671	-15.1647	118.918	117.331	-32.9395	105.59	96.2965	-45.3747	148.946	118.131	-17.6956	142.348	106.23	-40.625	125.1	85.934	-54.432	158.233	102.366	-11.1685	149.408	87.1558	-33.3493	133.383	71.9134	-40.2911	162.241	83.9527	-1.41515	146.807	67.4067	-10.0168	124.051	62.2498	-2.38112	166.651	110.541	36.7033	163.491	110.718	62.5	145.479	128.656	45.9883	
57	0.475	123.598	100.512	42.6561	100.877	94.0622	17.0653	89.9843	86.9283	-3.5785	85.7116	77.454	-15.7824	136.614	100.071	-20.9599	121.782	90.2312	-40.6582	99.7344	77.1214	-48.3428	148.744	78.9699	-25.614	132.208	72.3953	-48.9976	110.69	59.5829	-57.5148	152.709	60.8014	-17.654	136.386	54.8616	-37.6251	111.718	51.2044	-44.639	147.038	41.3679	-7.61716	126.701	41.5911	-14.1295	101.035	45.9369	-6.03493	166.595	73.7809	27.9467	167.657	72.8423	51.0019	158.071	95.971	37.0388	
58	0.483333	137.051	74.1084	35.544	111.682	79.0299	17.8987	97.9841	78.3842	-0.743906	86.5054	67.4945	-17.3878	139.473	58.1172	-24.4511	119.145	59.8926	-43.7268	95.7483	58.9055	-48.5431	140.108	37.1351	-25.6414	117.851	33.4295	-48.0726	90.6995	38.7822	-56.1472	135.58	23.435	-18.1468	113.204	19.0284	-34.5343	93.4482	26.2716	-40.325	122.925	7.19726	-2.32274	101.873	14.7544	-8.75787	83.6012	29.6929	-3.95217	156.225	25.6132	27.6502	161.667	30.2727	53.9469	163.568	53.7345	33.6992	
59	0.491667	143.452	38.9979	36.629	123.338	55.5233	15.893	107.084	50.4574	-1.76412	92.9181	51.9175	-14.4801	133.584	19.2956	-22.6734	113.378	23.4559	-38.1815	89.3118	33.424	-42.9163	119.337	-1.46387	-21.8632	99.6059	3.81237	-40.2677	78.0482	16.229	-47.29	108.751	-12.6472	-8.56435	88.6505	-5.376	-24.315	71.6984	9.31363	-28.8807	95.877	-16.6	10.9164	78.7711	-1.39819	3.29777	75.4733	21.3108	5.85907	135.303	-12.0437	30.1998	145.84	-7.77261	59.19	156.61	7.4702	36.7765	
60	0.5	142.506	9.8811	40.9448	125.039	23.9435	19.6771	111.748	30.9139	1.01969	95.4636	36.2382	-14.0354	113.07	-14.4887	-16.5645	98.3003	1.65392	-33.3885	83.3498	21.5356	-38.7006	98.5188	-26.114	-8.80917	82.2419	-14.9309	-29.7135	59.2592	8.73451	-37.2768	79.0535	-28.5271	2.5646	65.7117	-14.8223	-10.8329	55.4888	7.09899	-17.841	69.1259	-24.0065	25.2265	65.4958	-1.07678	12.4187	69.1845	19.0913	19.3597	108.553	-36.9558	44.0661	121.895	-33.4916	68.2603	136.251	-27.393	41.1764	
61	0.508333	130.928	-12.1289	41.5449	123.218	9.73527	21.3949	108.405	16.9709	1.8943	91.6543	20.5323	-8.48598	100.55	-31.4712	-7.64486	83.1739	-14.8603	-26.3202	78.6156	7.11832	-33.3718	76.7048	-38.1782	1.56537	64.4076	-24.7875	-24.2185	53.8653	0.153349	-32.8882	64.8378	-34.5819	11.1705	52.6977	-21.5369	-4.04618	46.5612	2.20973	-11.8331	54.5713	-24.458	28.9213	52.4251	-3.97193	22.3235	75.5904	14.2161	26.8552	88.1599	-45.1521	51.1737	103.131	-44.5335	74.5777	121.061	-43.2935	47.3193	
62	0.516667	125.216	-17.4067	43.9141	115.075	3.31659	23.2478	100.326	11.8108	2.13418	86.4564	19.5145	-8.84067	87.1995	-34.855	-2.94561	74.9703	-20.1125	-20.6829	70.9199	6.2657	-31.4112	63.9147	-40.7562	0.29965	54.4398	-27.2873	-19.8335	43.4522	1.34261	-28.8059	52.7626	-34.8849	18.7555	43.7252	-18.5022	-4.05565	40.4269	7.06287	-10.8302	44.1221	-22.5103	37.184	49.1667	0.150003	24.7073	73.1887	9.03313	30.7079	80.3725	-45.6461	57.1001	93.0597	-46.0663	81.1019	107.472	-46.1247	50.5431	
63	0.525	122.775	-12.055	42.6245	111.844	8.38835	22.9886	99.6047	18.2651	4.73944	80.5781	27.2602	-7.84263	83.3204	-28.4621	-2.93515	75.0127	-10.9392	-24.7883	64.3045	13.5609	-26.8885	62.8013	-34.1962	3.59766	51.0821	-22.6429	-16.375	38.4943	8.09831	-27.0502	50.7058	-29.6532	20.466	38.7306	-13.9891	1.51509	36.8628	8.57176	-6.64808	42.9603	-18.6516	38.1704	45.2255	0.702364	25.3749	66.5089	15.9791	31.8235	77.0533	-43.3808	54.7363	93.7542	-41.4286	80.2569	107.98	-41.1203	49.0344	
64	0.533333	126.693	2.92757	45.8009	111.279	24.0109	19.7343	97.8808	33.3554	6.96036	75.5083	36.6495	-4.75242	92.9025	-14.2391	-8.51592	76.6817	5.52585	-27.0337	64.2403	26.9707	-27.9571	71.7982	-22.5832	-3.49059	52.9917	-10.1739	-19.4707	42.5222	15.2474	-29.6082	56.8079	-21.9856	14.4896	39.5308	-4.52612	-3.74494	38.0464	14.4036	-9.79878	48.4071	-15.1159	31.9856	44.2583	7.39539	22.3946	58.4904	26.397	28.9597	82.8643	-34.3006	49.6897	99.5895	-34.177	74.1811	113.68	-28.6817	47.1141	
65	0.541667	125.151	28.6864	35.992	104.564	42.8679	16.1467	89.5528	48.2328	-0.751394	69.7937	47.4782	-10.9908	99.7369	5.53937	-18.1978	77.3977	18.4754	-33.7454	63.82	36.676	-36.843	77.7806	-10.2242	-16.2259	62.3281	0.624976	-31.7802	46.6161	22.4916	-39.9017	68.3362	-11.9199	-2.5892	52.2855	0.164266	-17.9005	41.1306	21.7437	-23.8972	56.4909	-10.9514	16.2238	44.5118	9.62152	8.68354	51.0974	29.497	11.5647	96.2624	-19.5876	39.6119	110.465	-14.6532	62.9492	121.557	-9.15548	35.0588	
